<?xml version="1.0" encoding="UTF-8"?>
<svg id="Layer_1" xmlns="http://www.w3.org/2000/svg" version="1.1" viewBox="0 0 1532.92 1532.92">
  <!-- Generator: Adobe Illustrator 29.8.1, SVG Export Plug-In . SVG Version: 2.1.1 Build 2)  -->
  <defs>
    <style>
      .st0 {
        fill: #fff;
      }
    </style>
  </defs>
  <path class="st0" d="M1531.38,399.47l-.03-.11c-4.39-13.82-16.66-22.9-34.51-25.56-16.4-2.48-32.72-3.73-48.48-3.73-32.27,0-63.6,5.25-93.12,15.61-43.29,15.19-85.05,38.53-124.11,69.37-38.22,30.07-75.25,65.25-110.07,104.56-34.43,38.98-67.8,79.08-99.19,119.21-29.05,37.25-57.26,74.44-83.86,110.54-25.97,35.35-50.3,66.9-72.33,93.8-21.48,26.31-40.57,46.09-56.78,58.82-11.84,9.36-19.94,10.76-23.72,10.76-2.09,0-3.84-.4-5.28-1.2-2.72-1.51-9.08-5.06-5.88-25.4,3.21-19.42,11.71-43.66,24.58-70.13,15.04-30.92,32.42-60.91,53.15-91.68l.1-.14c2.94-4.47,5.87-8.98,8.8-13.5,12.62-19.43,25.67-39.52,40.48-57.97,23.82-29.8,30.75-38.22,47.49-53.29,22.44-20.09,45.88-35.05,71.56-45.69,6.15-2.51,24.88-10.15,26.01-28.9.59-9.88-2.79-18.57-9.61-25.07,17.62-1.01,29.95-7.21,36.62-18.44,6.33-10.63,5.32-25.71-2.44-36.64-6.64-9.38-16.48-14.33-28.48-14.33-2.02,0-4.16.14-6.41.43-14.3,1.87-28.94,6.01-44.15,12.47.24-1.56.38-3.15.4-4.77.19-12.42-6.7-23.11-18.43-28.61l-.14-.06c-3.38-1.54-7.24-2.36-11.16-2.36-8.79,0-17.33,3.97-23.47,10.94-17.52,20.04-35.9,36.13-53.18,46.52-13.05,7.43-26.89,11.04-42.3,11.04-1.35,0-2.74-.03-4.12-.08-18.1-.73-42.58-6.32-72.77-16.61l-.34-.11c-30.99-9.74-63.1-22.49-90.41-33.67-34.29-14.04-67.02-25.68-100.06-35.58-34.82-10.48-67.57-16.44-100.1-18.21l-.38-.02c-3.03-.09-6.07-.13-9.04-.13-29.13,0-54.79,4.2-78.46,12.84-27.9,10.22-53.16,28.83-75.1,55.32l-.15.18c-22.33,27.85-35.01,55.54-38.77,84.66l-.02.13c-3.68,30.6-.65,59.12,9.24,87.17,9.37,26.61,24.11,51.15,45.11,75.05,19.55,22.11,42.88,40.28,69.34,53.99,27.32,14.15,55.78,21.54,84.57,21.98h.83c15.06,0,27.76-6.18,34.84-16.97l.17-.26c7-11.17,7.52-23.63,1.47-35.05-3.27-6.21-11.43-16.61-29.44-16.61-2.84,0-5.82.24-9.46.77-11.21,1.68-21.68,2.53-31.14,2.53-20.28,0-36.23-3.84-47.37-11.38-17.15-11.72-28.22-26.78-32.89-44.76-4.23-18.58-2.72-38.58,4.51-59.46,7.35-21.34,20.16-40.78,37.04-56.22l.17-.16c25.89-24.43,66.35-39.84,123.7-47.13,11.96-1.52,24.79-2.29,38.12-2.29,49.89,0,108.96,10.64,175.59,31.62,32.29,10.15,59.4,15.08,82.89,15.08,1.89,0,3.78-.03,5.59-.1,19-.62,36.47-3.31,52.92-8.17-6.35,5.86-12.69,11.95-19.01,18.27-24.47,24.47-50.93,53.14-80.93,87.68-26.67,30.76-55.41,63.76-84.92,96.6l-.08.09c-43.56,49.31-88.52,94.27-133.64,133.64-45.17,39.51-90.36,71.31-134.32,94.52-43.69,23.04-85.4,35.77-127.54,38.91-5,.38-10.06.57-15.03.57-35.19,0-69.75-9.54-102.7-28.34l-.17-.09c-27.68-15.34-49.95-34.28-68.03-57.86-16.64-21.88-27.35-44.72-31.81-67.87-4.03-20.82-.95-39.25,9.15-54.77l.06-.1c7.21-11.26,18.9-20.97,34.77-28.87,17.11-8.56,39.27-14.41,65.81-17.4,6.97-.76,19.96-3.72,28.67-15.07l.1-.14c9.45-12.59,10.66-27.66,3.21-40.33-4.56-7.72-11.98-13.43-20.41-15.68-3.06-.8-6.06-1.19-9.19-1.19-6.61,0-13.45,1.75-22.17,5.68-43.52,18.8-79.9,43.12-108.13,72.3-27.2,28.15-47.02,59.18-58.95,92.32-11.63,32.87-16.18,65.56-13.52,97.16,1.76,30.67,10.69,59.86,27.31,89.23l.11.19c15.68,26.79,37.66,48.78,65.35,65.4,49.21,29.42,97.59,43.72,147.9,43.72,15.62,0,31.05-1.38,45.86-4.1,65.4-9.75,136.37-45.22,210.96-105.43,74.49-60.1,155.91-146.17,248.94-263.17l2.69-3.4c23.7-29.96,48.2-60.94,72.17-89.7,29.18-34.99,51.69-59.8,73-80.42,2.01-1.94,4.03-3.85,6.05-5.74-11.48,12.81-24.38,27.78-39.75,47.58-5.83,7.54-14.82,19.49-32.8,45.15-28.59,40.68-57.62,84.77-86.28,131.02-10.61,17.13-20.85,34.71-35.34,60.67-12.2,21.79-21.82,42.83-28.58,62.51l-.9,2.59c-5.8,16.66-11.8,33.88-10.71,55.69.85,16.74,4.99,25.59,7.98,30.72,12.24,21.26,33.84,27.26,40.21,28.6l.34.07c3.54.66,7.15,1,10.73,1,9.6,0,18.97-2.26,29.5-7.12l.13-.06c20.67-9.79,42.94-27.43,66.15-52.43,22.17-23.77,46.58-53.43,72.54-88.15,26.61-35.58,53.69-72.75,80.51-110.49,27.96-39.34,57.59-78.58,88.08-116.61l.07-.09c30.57-38.73,62.02-76.44,93.47-112.07,30.9-35.01,63.57-65.35,97.1-90.19,32.91-24.47,68.8-41.83,106.7-51.61,17.8-4.59,36.72-6.92,56.25-6.92,21.27,0,43.87,2.76,67.17,8.2,3.44.81,6.84,1.22,10.11,1.22h0c4.34,0,8.51-.72,12.3-2.11,8.35-3.01,13.36-8.4,15.31-10.5l.2-.22c7.48-8.37,14.52-23.33,9.8-37.86Z"/>
  <g>
    <path d="M482.8,787.84h-.6c-26.4-.4-52.6-7.2-77.9-20.3-24.9-12.9-46.7-29.9-65-50.6-19.5-22.2-33.4-45.1-42.2-70.1-9.1-25.8-11.9-52.1-8.5-80.4,3.4-26.3,15-51.5,35.6-77.2h0c20.2-24.4,43.3-41.5,68.7-50.8,24.1-8.8,50.9-12.7,81.9-11.8,31.1,1.7,62.7,7.4,96.6,17.6,32.7,9.8,65,21.3,98.7,35.1,27.6,11.3,60.1,24.2,91.6,34.1,31.4,10.7,57.3,16.6,77,17.4,19.9.8,37.8-3.4,54.6-13,18.5-11.1,38.2-28.2,56.9-49.6,5.2-5.9,12.5-6.9,17.1-4.8,6.4,3,9.9,8.2,9.8,14.8-.1,7.1-4.1,13.3-12.7,19.5-21.7,15.8-42.6,28-62.3,36.2-19.8,8.2-41.3,12.7-66,13.5-23.1.8-50.4-3.9-83.5-14.3-87-27.4-161.1-37.4-220.1-29.9-60.6,7.7-103.8,24.4-132.1,51.1-18.7,17.1-32.9,38.6-41.1,62.4-8.2,23.7-9.8,46.6-4.9,67.9,5.6,21.8,18.8,39.8,39,53.6,19.8,13.4,49.8,17.2,89.2,11.3,8.3-1.2,18.4-1.5,23.4,8,3.6,6.8,3.3,13.4-.9,20.1-4.2,6.4-12.3,10.2-22.3,10.2ZM328.1,492.34c-20,25-31.2,49.4-34.5,74.7-3.3,27.6-.7,53.1,8.2,78.1,8.6,24.3,22.1,46.7,41.2,68.4,17.8,20.3,39.2,36.9,63.5,49.5,24.6,12.7,50,19.3,75.7,19.7,8.5.1,15.4-2.8,18.7-8,3.3-5.2,3.5-9.8.7-15-2.9-5.4-8.2-6.9-18.3-5.4-40.7,6.2-71.9,2.1-92.7-12.1-21.3-14.5-35.1-33.5-41.1-56.5-5.1-22.3-3.4-46.1,5.1-70.7,8.5-24.6,23.1-46.9,42.4-64.5,29.1-27.4,73.2-44.6,134.9-52.4,59.7-7.6,134.5,2.6,222.2,30.1,32.5,10.3,59.3,14.9,81.8,14.1,24-.9,45-5.2,64.2-13.2,19.3-8,39.9-20,61.2-35.6,7.2-5.2,10.6-10.2,10.7-15.5.1-4.6-2.2-8.1-6.9-10.2-2.9-1.3-7.8-.3-11.3,3.6-19.1,21.7-39.2,39.2-58.2,50.6-17.7,10.1-36.4,14.6-57.3,13.7-20.2-.8-46.5-6.8-78.3-17.7-31.7-9.9-64.2-22.9-91.9-34.3-33.5-13.8-65.7-25.2-98.2-35-33.6-10.1-64.8-15.8-95.4-17.4-30.3-.9-56.4,2.9-80,11.5-24.4,9.1-46.8,25.7-66.4,49.5Z"/>
    <path d="M241.4,1147.84c-47.5,0-93.7-13.8-140.2-41.6-25.5-15.3-45.7-35.5-60.1-60.1-15.5-27.4-23.8-54.5-25.4-82.9-2.5-29.4,1.7-60,12.7-91.1,11.2-31.1,30-60.4,55.6-86.9,26.9-27.8,61.7-51,103.4-69,9.3-4.2,15.4-5.3,21.5-3.7,4.5,1.2,8.7,4.4,11.3,8.8,6.4,10.9-.2,20.9-2.3,23.7-5.3,6.9-13.8,8.8-18.4,9.3-28.4,3.2-52.3,9.6-70.9,18.9-18.3,9.1-32,20.6-40.7,34.2-12.3,18.9-16.1,41-11.3,65.8,4.9,25.4,16.5,50.3,34.6,74.1,19.4,25.3,43.1,45.5,72.7,61.9,40.3,23,82.8,33,126.3,29.7,44.3-3.3,87.9-16.6,133.4-40.6,44.7-23.6,90.9-56,137.2-96.5,45.6-39.8,91-85.2,135-135,30.1-33.5,59.7-67.5,85.1-96.8,29.7-34.2,55.9-62.6,80.2-86.9,25.9-25.9,52.1-47.9,78-65.4,28.6-18.4,54.3-28.9,78.7-32.1,9.5-1.2,16.1,1.2,20.7,7.7,4.9,6.9,4.6,15.6,1.8,20.3-4.1,6.9-12.4,10.6-25.4,11.2-25.4,1.3-50.9,9-75.7,23-25.5,15.3-50.6,34.8-74.6,58-21.7,21-44.5,46.1-74.1,81.6-25,30-50.5,62.3-75.1,93.4-92.4,116.2-173.1,201.5-246.6,260.8-72.6,58.6-141.2,93-204,102.3-14.6,2.7-29.1,3.9-43.4,3.9ZM203.5,716.84c-3.3,0-7.5,1-14,4-41.2,17.8-75.4,40.6-101.9,67.9-25.2,26-43.5,54.6-54.5,85.1-10.7,30.3-14.9,60.3-12.4,89,1.5,27.7,9.6,54.1,24.7,80.8,14,23.9,33.6,43.5,58.4,58.3,59.4,35.6,118.3,47.8,180.2,37.2,61.9-9.2,129.7-43.3,201.6-101.3,73.2-59.1,153.6-144.1,245.8-260,24.6-31.2,50.1-63.4,75.1-93.5,29.7-35.6,52.6-60.9,74.5-82,24.3-23.5,49.7-43.3,75.6-58.8,25.5-14.5,51.7-22.4,77.9-23.7,11.2-.6,18.2-3.4,21.3-8.8,2-3.4,2-9.8-1.6-14.8-3.5-4.9-8.4-6.6-16-5.6-23.6,3.1-48.7,13.3-76.6,31.3-25.6,17.3-51.6,39.1-77.2,64.8-24.2,24.2-50.4,52.6-80,86.7-25.4,29.3-55,63.3-85.1,96.8-44.1,49.9-89.6,95.5-135.4,135.4-46.6,40.7-93.1,73.4-138.2,97.1-46.1,24.3-90.4,37.8-135.3,41.2-44.5,3.4-88-6.9-129.1-30.4-30.1-16.7-54.4-37.4-74.2-63.2-18.5-24.4-30.5-50-35.5-76.2-5-26.1-1-49.4,12-69.4,9.2-14.3,23.6-26.4,42.7-35.9,19.2-9.6,43.6-16.1,72.6-19.4,3.8-.4,10.8-2,15-7.4,1.7-2.2,6.8-10,2-18.1-2-3.3-5-5.7-8.2-6.5-1.3-.4-2.7-.6-4.2-.6Z"/>
  </g>
  <path d="M1517.1,404.04c-.8-2.5-3.7-12.6-22.5-15.4-47.7-7.2-92.5-3.5-134.4,11.2-41.9,14.7-81.8,37-119.8,67-38,29.9-74,64.2-108.1,102.7-34.1,38.6-67,78.1-98.6,118.5-29.4,37.7-57.3,74.5-83.6,110.2-26.3,35.8-50.6,67.3-72.8,94.4-22.2,27.2-41.9,47.6-59.1,61.1-17.2,13.6-33.8,17.4-45.6,10.9-12.4-6.9-16.7-20-13.4-40.9,3.3-20,11.7-45.1,25.9-74.3s31.7-60.1,54.2-93.5c15.9-24.2,31.4-49.3,50.1-72.6,23.5-29.4,31.2-38.9,49.2-55.1,22.9-20.5,47.9-36.8,75.9-48.4,7.6-3.1,16.2-7.6,16.7-15.9.4-6.7-2.3-12.1-8.3-15.9-6.1-3.8-18.4-2.5-26.7,1.7-28.9,14.4-62.7,47.9-70.1,55.9-14.8,16.2-31.4,34.3-52.9,62-5.1,6.6-13.9,18.2-32.4,44.6-18.2,25.9-48.5,70.1-85.8,130.3-11.4,18.4-22,36.8-35,60.1-11.7,20.9-20.9,40.9-27.5,60.1-5.9,17-11.8,32.7-10.8,52.6.7,13.7,3.9,20.4,6,24,9.9,17.2,28.4,21,30.3,21.4,11.8,2.2,22.1-.8,31.2-5,18.8-8.9,39.4-25.2,61.6-49.1,22.2-23.8,46-52.8,71.5-86.9,25.5-34.1,52.3-70.8,80.3-110.2s57.5-78.5,88.6-117.3c31.1-39.4,62.4-76.9,94-112.7s64.7-66.6,99.4-92.3c34.7-25.8,72-43.8,111.9-54.1,39.9-10.3,83.5-9.8,130.6,1.2,5.1,1.2,9.8,1.1,13.9-.4,5-1.8,8.1-5.2,9.4-6.6,5-5.6,9.3-15.3,6.7-23.3Z"/>
</svg>