<?xml version="1.0" encoding="utf-8"?>
<!-- Generator: Adobe Illustrator 27.5.0, SVG Export Plug-In . SVG Version: 6.00 Build 0)  -->
<svg version="1.1" id="Layer_1" xmlns="http://www.w3.org/2000/svg" xmlns:xlink="http://www.w3.org/1999/xlink" x="0px" y="0px"
	 viewBox="0 0 1502.9 762.8" style="enable-background:new 0 0 1502.9 762.8;" xml:space="preserve">
<style type="text/css">
	.st0{display:none;}
	.st1{display:inline;fill:none;stroke:#000000;stroke-width:5;stroke-miterlimit:10;}
</style>
<g>
	<g class="st0">
		<path class="st1" d="M311.1,105.7c20-24.2,42.6-40.9,67.6-50.1s51.7-12.5,80.9-11.7c30.9,1.7,62.6,7.5,96,17.5
			c33.4,10,65.9,21.7,98.5,35c32.5,13.4,62.6,25,91.8,34.2c31.7,10.8,57.6,16.7,77.6,17.5s38.4-3.3,55.9-13.4
			c16.7-10,36.5-26.1,57.6-50.1c4.3-4.9,10.5-5.9,14.2-4.2c4.6,2.1,8.4,6,8.3,12.5c-0.1,5.9-3.5,11.5-11.7,17.5
			c-21.2,15.4-41.7,27.5-61.8,35.9c-20,8.3-41.7,12.5-65.1,13.4c-23.4,0.8-50.9-4.2-82.6-14.2c-87.6-27.5-161.9-37.6-221.1-30
			s-104.3,24.2-133.5,51.7c-19.2,17.5-33.4,39.2-41.7,63.4c-8.3,24.2-10,47.6-5,69.3c5.8,22.5,19.2,40.9,40.1,55.1
			c20.9,14.2,51.8,17.6,91,11.7c10.9-1.6,17.3,0.1,20.9,6.7c3.2,5.9,3,11.5-0.8,17.5c-3.6,5.7-10.8,9.3-20.9,9.2
			c-26.7-0.4-52.6-7.5-76.8-20s-45.9-29.2-64.3-50.1c-18.4-20.9-32.5-43.4-41.7-69.3s-11.7-51.7-8.3-79.3
			C279.4,155.8,291.1,130.7,311.1,105.7z"/>
		<path class="st1" d="M87.5,719c-25-15-45.1-35-59.2-59.2c-14.2-25-23.4-51.7-25-81.8c-2.5-29.2,1.7-59.2,12.5-90.1
			c10.8-30,29.2-59.2,55.1-86c25.9-26.7,60.1-50.1,102.6-68.4c9.2-4.2,14.5-5,19.9-3.6c3.4,0.9,7.2,3.3,9.8,7.7
			c4.5,7.7,1.8,15.7-2.2,20.9c-5,6.5-13.3,8-16.7,8.3c-29.2,3.3-53.4,10-71.8,19.2S80,406.9,70.8,421
			c-12.5,19.2-16.7,41.7-11.7,67.6c5,25.9,16.7,50.9,35,75.1c19.2,25,43.4,45.9,73.4,62.6c40.9,23.4,83.4,33.4,127.7,30
			s88.5-16.7,134.4-40.9s91.8-56.7,137.7-96.8c45.9-40.1,91-85.1,135.2-135.2c29.2-32.5,57.6-65.1,85.1-96.8s54.2-60.9,80.1-86.8
			c25.9-25.9,51.7-47.6,77.6-65.1c25.9-16.7,51.6-28.3,77.6-31.7c8.3-1.1,14.2,0.8,18.4,6.7s4.1,13.4,1.7,17.5
			c-3.5,5.9-10.8,9.4-23.4,10c-25.9,1.3-51.7,9.2-76.8,23.4c-25,15-50.1,34.2-75.1,58.4s-49.2,51.7-74.3,81.8
			c-25,30-50.1,61.8-75.1,93.5c-91,114.3-172.7,201.1-246.2,260.4c-73.4,59.2-141,92.6-202.8,101.8C206,767.4,145.9,754.1,87.5,719z
			"/>
	</g>
	<g>
		<g>
			<path d="M467.8,402.8c-0.2,0-0.4,0-0.6,0c-26.4-0.4-52.6-7.2-77.9-20.3c-24.9-12.9-46.7-29.9-65-50.6
				c-19.5-22.2-33.4-45.1-42.2-70.1c-9.1-25.8-11.9-52.1-8.5-80.4c3.4-26.3,15-51.5,35.6-77.2l0,0c20.2-24.4,43.3-41.5,68.7-50.8
				c24.1-8.8,50.9-12.7,81.9-11.8c31.1,1.7,62.7,7.4,96.6,17.6c32.7,9.8,65,21.3,98.7,35.1c27.6,11.3,60.1,24.2,91.6,34.1
				c31.4,10.7,57.3,16.6,77,17.4c19.9,0.8,37.8-3.4,54.6-13c18.5-11.1,38.2-28.2,56.9-49.6c5.2-5.9,12.5-6.9,17.1-4.8
				c6.4,3,9.9,8.2,9.8,14.8c-0.1,7.1-4.1,13.3-12.7,19.5c-21.7,15.8-42.6,28-62.3,36.2c-19.8,8.2-41.3,12.7-66,13.5
				c-23.1,0.8-50.4-3.9-83.5-14.3c-87-27.4-161.1-37.4-220.1-29.9c-60.6,7.7-103.8,24.4-132.1,51.1c-18.7,17.1-32.9,38.6-41.1,62.4
				c-8.2,23.7-9.8,46.6-4.9,67.9c5.6,21.8,18.8,39.8,39,53.6c19.8,13.4,49.8,17.2,89.2,11.3c8.3-1.2,18.4-1.5,23.4,8
				c3.6,6.8,3.3,13.4-0.9,20.1C485.9,399,477.8,402.8,467.8,402.8z M313.1,107.3c-20,25-31.2,49.4-34.5,74.7
				c-3.3,27.6-0.7,53.1,8.2,78.1c8.6,24.3,22.1,46.7,41.2,68.4c17.8,20.3,39.2,36.9,63.5,49.5c24.6,12.7,50,19.3,75.7,19.7
				c8.5,0.1,15.4-2.8,18.7-8c3.3-5.2,3.5-9.8,0.7-15c-2.9-5.4-8.2-6.9-18.3-5.4c-40.7,6.2-71.9,2.1-92.7-12.1
				c-21.3-14.5-35.1-33.5-41.1-56.5c-5.1-22.3-3.4-46.1,5.1-70.7c8.5-24.6,23.1-46.9,42.4-64.5c29.1-27.4,73.2-44.6,134.9-52.4
				c59.7-7.6,134.5,2.6,222.2,30.1c32.5,10.3,59.3,14.9,81.8,14.1c24-0.9,45-5.2,64.2-13.2c19.3-8,39.9-20,61.2-35.6
				c7.2-5.2,10.6-10.2,10.7-15.5c0.1-4.6-2.2-8.1-6.9-10.2c-2.9-1.3-7.8-0.3-11.3,3.6c-19.1,21.7-39.2,39.2-58.2,50.6
				c-17.7,10.1-36.4,14.6-57.3,13.7c-20.2-0.8-46.5-6.8-78.3-17.7c-31.7-9.9-64.2-22.9-91.9-34.3c-33.5-13.8-65.7-25.2-98.2-35
				c-33.6-10.1-64.8-15.8-95.4-17.4c-30.3-0.9-56.4,2.9-80,11.5C355.1,66.9,332.7,83.5,313.1,107.3z"/>
		</g>
		<g>
			<path d="M226.4,762.8c-47.5,0-93.7-13.8-140.2-41.6c-25.5-15.3-45.7-35.5-60.1-60.1c-15.5-27.4-23.8-54.5-25.4-82.9
				c-2.5-29.4,1.7-60,12.7-91.1c11.2-31.1,30-60.4,55.6-86.9c26.9-27.8,61.7-51,103.4-69c9.3-4.2,15.4-5.3,21.5-3.7
				c4.5,1.2,8.7,4.4,11.3,8.8c6.4,10.9-0.2,20.9-2.3,23.7c-5.3,6.9-13.8,8.8-18.4,9.3c-28.4,3.2-52.3,9.6-70.9,18.9
				c-18.3,9.1-32,20.6-40.7,34.2c-12.3,18.9-16.1,41-11.3,65.8c4.9,25.4,16.5,50.3,34.6,74.1c19.4,25.3,43.1,45.5,72.7,61.9
				c40.3,23,82.8,33,126.3,29.7c44.3-3.3,87.9-16.6,133.4-40.6c44.7-23.6,90.9-56,137.2-96.5c45.6-39.8,91-85.2,135-135
				c30.1-33.5,59.7-67.5,85.1-96.8c29.7-34.2,55.9-62.6,80.2-86.9c25.9-25.9,52.1-47.9,78-65.4c28.6-18.4,54.3-28.9,78.7-32.1
				c9.5-1.2,16.1,1.2,20.7,7.7c4.9,6.9,4.6,15.6,1.8,20.3c-4.1,6.9-12.4,10.6-25.4,11.2c-25.4,1.3-50.9,9-75.7,23
				c-25.5,15.3-50.6,34.8-74.6,58c-21.7,21-44.5,46.1-74.1,81.6c-25,30-50.5,62.3-75.1,93.4C628,512,547.3,597.3,473.8,656.6
				c-72.6,58.6-141.2,93-204,102.3C255.2,761.6,240.7,762.8,226.4,762.8z M188.5,331.8c-3.3,0-7.5,1-14,4
				c-41.2,17.8-75.4,40.6-101.9,67.9c-25.2,26-43.5,54.6-54.5,85.1c-10.7,30.3-14.9,60.3-12.4,89c1.5,27.7,9.6,54.1,24.7,80.8
				c14,23.9,33.6,43.5,58.4,58.3c59.4,35.6,118.3,47.8,180.2,37.2c61.9-9.2,129.7-43.3,201.6-101.3c73.2-59.1,153.6-144.1,245.8-260
				c24.6-31.2,50.1-63.4,75.1-93.5c29.7-35.6,52.6-60.9,74.5-82c24.3-23.5,49.7-43.3,75.6-58.8c25.5-14.5,51.7-22.4,77.9-23.7
				c11.2-0.6,18.2-3.4,21.3-8.8c2-3.4,2-9.8-1.6-14.8c-3.5-4.9-8.4-6.6-16-5.6c-23.6,3.1-48.7,13.3-76.6,31.3
				C921,154.2,895,176,869.4,201.7c-24.2,24.2-50.4,52.6-80,86.7c-25.4,29.3-55,63.3-85.1,96.8c-44.1,49.9-89.6,95.5-135.4,135.4
				c-46.6,40.7-93.1,73.4-138.2,97.1c-46.1,24.3-90.4,37.8-135.3,41.2c-44.5,3.4-88-6.9-129.1-30.4c-30.1-16.7-54.4-37.4-74.2-63.2
				c-18.5-24.4-30.5-50-35.5-76.2c-5-26.1-1-49.4,12-69.4c9.2-14.3,23.6-26.4,42.7-35.9c19.2-9.6,43.6-16.1,72.6-19.4
				c3.8-0.4,10.8-2,15-7.4c1.7-2.2,6.8-10,2-18.1c-2-3.3-5-5.7-8.2-6.5C191.4,332,190,331.8,188.5,331.8z"/>
		</g>
	</g>
	<path d="M703,675.7c11.8,2.2,22.1-0.8,31.2-5c18.8-8.9,39.4-25.2,61.6-49.1c22.2-23.8,46-52.8,71.5-86.9
		c25.5-34.1,52.3-70.8,80.3-110.2s57.5-78.5,88.6-117.3c31.1-39.4,62.4-76.9,94-112.7s64.7-66.6,99.4-92.3
		c34.7-25.8,72-43.8,111.9-54.1c39.9-10.3,83.5-9.8,130.6,1.2c5.1,1.2,9.8,1.1,13.9-0.4c5-1.8,8.1-5.2,9.4-6.6
		c5-5.6,9.3-15.3,6.7-23.3c-0.8-2.5-3.7-12.6-22.5-15.4c-47.7-7.2-92.5-3.5-134.4,11.2s-81.8,37-119.8,67
		c-38,29.9-74,64.2-108.1,102.7c-34.1,38.6-67,78.1-98.6,118.5c-29.4,37.7-57.3,74.5-83.6,110.2c-26.3,35.8-50.6,67.3-72.8,94.4
		c-22.2,27.2-41.9,47.6-59.1,61.1c-17.2,13.6-33.8,17.4-45.6,10.9c-12.4-6.9-16.7-20-13.4-40.9c3.3-20,11.7-45.1,25.9-74.3
		s31.7-60.1,54.2-93.5c15.9-24.2,31.4-49.3,50.1-72.6c23.5-29.4,31.2-38.9,49.2-55.1c22.9-20.5,47.9-36.8,75.9-48.4
		c7.6-3.1,16.2-7.6,16.7-15.9c0.4-6.7-2.3-12.1-8.3-15.9c-6.1-3.8-18.4-2.5-26.7,1.7c-28.9,14.4-62.7,47.9-70.1,55.9
		c-14.8,16.2-31.4,34.3-52.9,62c-5.1,6.6-13.9,18.2-32.4,44.6c-18.2,25.9-48.5,70.1-85.8,130.3c-11.4,18.4-22,36.8-35,60.1
		c-11.7,20.9-20.9,40.9-27.5,60.1c-5.9,17-11.8,32.7-10.8,52.6c0.7,13.7,3.9,20.4,6,24C682.6,671.5,701.1,675.3,703,675.7z"/>
</g>
</svg>
